PathFileType	4	(X/Y/Z)	/Users/itak/Documents/Research/Walk-IL/dataset/trc/00251_00009.trc
DataRate	CameraRate	NumFrames	NumMarkers	Units	OrigDataRate	OrigDataStartFrame	OrigNumFrames
100.000000	100.000000	4	54	mm	100.000000	175	468
Frame#	Time	RPSI			LPSI			L3			STRN			T10			C7			CLAV			RBAK			LBAK			LSHO			LUPA			LAEL			LAOL			LWTS			LWPS			LFRA			LHPS			LHTS			RSHO			RUPA			RAEL			RAOL			RWTS			RWPS			RFRA			RHTS			RHPS			RBHD			LFHD			RFHD			LBHD			LHIP			RHIP			RASI			LASI			LKNE			LTHI			LANK			LTIP			LTOE			LMT1			LMT5			LHEE			RKNE			RTHI			RANK			RTIP			RTOE			RMT1			RMT5			RHEE			LIFD			RIFD			*53			
		X1	Y1	Z1	X2	Y2	Z2	X3	Y3	Z3	X4	Y4	Z4	X5	Y5	Z5	X6	Y6	Z6	X7	Y7	Z7	X8	Y8	Z8	X9	Y9	Z9	X10	Y10	Z10	X11	Y11	Z11	X12	Y12	Z12	X13	Y13	Z13	X14	Y14	Z14	X15	Y15	Z15	X16	Y16	Z16	X17	Y17	Z17	X18	Y18	Z18	X19	Y19	Z19	X20	Y20	Z20	X21	Y21	Z21	X22	Y22	Z22	X23	Y23	Z23	X24	Y24	Z24	X25	Y25	Z25	X26	Y26	Z26	X27	Y27	Z27	X28	Y28	Z28	X29	Y29	Z29	X30	Y30	Z30	X31	Y31	Z31	X32	Y32	Z32	X33	Y33	Z33	X34	Y34	Z34	X35	Y35	Z35	X36	Y36	Z36	X37	Y37	Z37	X38	Y38	Z38	X39	Y39	Z39	X40	Y40	Z40	X41	Y41	Z41	X42	Y42	Z42	X43	Y43	Z43	X44	Y44	Z44	X45	Y45	Z45	X46	Y46	Z46	X47	Y47	Z47	X48	Y48	Z48	X49	Y49	Z49	X50	Y50	Z50	X51	Y51	Z51	X52	Y52	Z52	X53	Y53	Z53	X54	Y54	Z54	

176	1.75	-1167.051879882812	1023.263732910156	-316.888671875	-1139.21142578125	1041.225830078125	-432.1542663574219	-1148.340087890625	1121.515869140625	-392.1259460449219	-899.5910034179688	1308.479248046875	-330.5137329101562	-1149.200317382812	1247.998413085938	-390.66455078125	-1082.63818359375	1508.599487304688	-386.3338928222656	-921.5111694335938	1427.584838867188	-339.0887451171875	-1173.963500976562	1373.480712890625	-329.6978759765625	-1075.471557617188	1469.074951171875	-497.216552734375	-976.6199951171875	1471.448486328125	-526.2860107421875	-979.9290161132812	1359.377197265625	-615.5029296875	-940.3388061523438	1159.137817382812	-665.93505859375	-1017.924560546875	1127.943237304688	-639.1866455078125	-817.966064453125	945.6989135742188	-593.80712890625	-815.068359375	934.00537109375	-679.3787841796875	-892.6646118164062	1061.126953125	-678.4063110351562	-780.4996948242188	850.9364624023438	-675.9052124023438	-756.0137329101562	856.416015625	-610.8203125	-1070.1337890625	1481.410522460938	-206.6061096191406	-1108.958129882812	1421.96240234375	-144.1934814453125	-1161.941528320312	1145.770141601562	-99.67501831054688	-1168.779663085938	1136.45556640625	-194.2546691894531	-1018.634643554688	930.7818603515625	-99.47537994384766	-1087.550659179688	916.412841796875	-51.24575042724609	-1141.195678710938	1076.5986328125	-78.05983734130859	-984.3298950195312	811.2642822265625	-72.24186706542969	-1049.785400390625	810.4056396484375	-37.0105094909668	-1062.27880859375	1657.239379882812	-354.4718322753906	-842.6468505859375	1713.488159179688	-334.8316955566406	-893.8582763671875	1711.238403320312	-248.7826995849609	-956.6765747070312	1668.59033203125	-445.8671875	-1005.468383789062	996.7828979492188	-550.0038452148438	-1093.960083007812	980.638671875	-193.2196044921875	-993.3780517578125	1031.833251953125	-207.0193481445312	-920.143798828125	1034.859375	-477.2673950195312	-945.7274780273438	511.259033203125	-496.9701232910156	-954.6064453125	655.9092407226562	-526.4229125976562	-1051.670654296875	34.47415924072266	-498.5964050292969	-1001.399963378906	283.1311340332031	-508.4605712890625	-855.9935302734375	45.64241027832031	-393.5917053222656	-932.5383911132812	42.79671859741211	-367.8567199707031	-923.181396484375	35.3248405456543	-486.212646484375	-1124.363525390625	43.85690689086914	-462.6842041015625	-911.9210205078125	513.9171752929688	-180.6474456787109	-986.022216796875	774.7504272460938	-169.3723602294922	-1222.985229492188	146.2623291015625	-257.8483581542969	-941.1127319335938	402.0320434570312	-201.4434967041016	-1031.298461914062	64.41237640380859	-250.1847381591797	-1070.565551757812	76.98378753662109	-307.1858215332031	-1136.85595703125	94.99672698974609	-207.9204254150391	-1261.022583007812	173.7820281982422	-327.7338562011719	-780.42041015625	759.3748168945312	-608.4707641601562	-1001.370178222656	738.0576171875	-98.8140869140625	nan	nan	nan	
177	1.76	-1161.379272460938	1023.464904785156	-316.9928283691406	-1132.854736328125	1041.363159179688	-432.0489807128906	-1142.08642578125	1121.464111328125	-392.5260314941406	-893.64013671875	1308.496704101562	-328.5064086914062	-1142.716796875	1248.106323242188	-391.411865234375	-1076.000732421875	1508.672241210938	-386.2732543945312	-915.4141845703125	1427.625244140625	-337.186279296875	-1167.869750976562	1373.534057617188	-330.7208251953125	-1067.534423828125	1469.238403320312	-497.1246643066406	-968.3181762695312	1471.745483398438	-524.82958984375	-969.84912109375	1359.955322265625	-614.3707275390625	-927.5267333984375	1160.190795898438	-664.5454711914062	-1005.457092285156	1128.237670898438	-639.5065307617188	-804.3528442382812	948.141357421875	-589.8271484375	-799.3780517578125	936.61962890625	-675.3916625976562	-878.5462646484375	1062.746948242188	-676.072998046875	-763.9150390625	853.9677124023438	-671.3156127929688	-741.008544921875	859.6097412109375	-605.6484375	-1065.491821289062	1481.434326171875	-206.3931427001953	-1105.094604492188	1421.978149414062	-144.5094909667969	-1158.784912109375	1145.754028320312	-100.9083480834961	-1164.345703125	1136.5185546875	-195.5659637451172	-1014.851135253906	931.3488159179688	-98.92398834228516	-1084.398559570312	916.5009765625	-51.85944366455078	-1138.2158203125	1076.583740234375	-79.12755584716797	-980.3544311523438	811.8424682617188	-71.51396942138672	-1046.278930664062	810.6345825195312	-37.28074645996094	-1055.940063476562	1657.242797851562	-353.52294921875	-836.4354858398438	1713.515991210938	-332.6427917480469	-888.1307373046875	1711.1923828125	-246.8858795166016	-949.8477783203125	1668.652221679688	-444.3193359375	-998.7080688476562	996.562255859375	-549.3635864257812	-1088.698974609375	981.2426147460938	-192.9120178222656	-988.1668090820312	1032.004638671875	-206.376708984375	-913.4754028320312	1034.650146484375	-476.3094787597656	-943.8070068359375	510.6495666503906	-496.8194885253906	-951.0914916992188	655.489501953125	-525.924560546875	-1051.687255859375	34.59188842773438	-498.4234008789062	-1000.569030761719	282.9248046875	-508.2980041503906	-855.9320678710938	45.59575271606445	-393.5013732910156	-932.5662231445312	42.68426895141602	-367.8472290039062	-923.2076416015625	35.35013580322266	-486.1716003417969	-1124.387939453125	43.90268325805664	-462.51953125	-900.6634521484375	516.84765625	-177.4370880126953	-979.3629150390625	776.7553100585938	-167.2586059570312	-1198.361328125	137.5515747070312	-257.2214050292969	-926.8583374023438	403.6623840332031	-198.2015228271484	-1003.544006347656	64.04129028320312	-245.1810455322266	-1042.219604492188	74.38735961914062	-303.0317687988281	-1111.072265625	90.35328674316406	-205.3243713378906	-1236.205688476562	162.7818145751953	-328.0925903320312	-764.055419921875	762.1205444335938	-604.166259765625	-996.6619873046875	738.6317138671875	-98.42658996582031	nan	nan	nan	
178	1.77	-1155.679565429688	1023.614074707031	-317.1265258789062	-1126.453857421875	1041.442016601562	-431.9542236328125	-1135.846801757812	1121.377685546875	-392.9096069335938	-887.7069702148438	1308.424194335938	-326.4398498535156	-1136.28662109375	1248.15576171875	-392.0554809570312	-1069.369750976562	1508.6708984375	-386.0951538085938	-909.3142700195312	1427.584106445312	-335.2157287597656	-1161.763916015625	1373.51171875	-331.6332397460938	-1059.617065429688	1469.3310546875	-496.9053955078125	-960.06005859375	1471.960815429688	-523.2844848632812	-959.852783203125	1360.439208984375	-613.08154296875	-914.8607177734375	1161.169677734375	-662.9336547851562	-993.05078125	1128.47265625	-639.5447387695312	-790.8968505859375	950.5281982421875	-585.722900390625	-783.9493408203125	939.167724609375	-671.1347045898438	-864.6201171875	1064.292724609375	-673.4891967773438	-747.5888671875	856.95654296875	-666.4296875	-726.3018798828125	862.73388671875	-600.237548828125	-1060.812744140625	1481.35302734375	-206.0835571289062	-1101.166137695312	1421.876953125	-144.7398834228516	-1155.51318359375	1145.614990234375	-102.0754776000977	-1159.852294921875	1136.4755859375	-196.798583984375	-1011.084045410156	931.692626953125	-98.43553924560547	-1081.2333984375	916.423095703125	-52.46732711791992	-1135.13671875	1076.43505859375	-80.15035247802734	-976.4600219726562	812.1978759765625	-70.86428833007812	-1042.801879882812	810.6781616210938	-37.57848358154297	-1049.604370117188	1657.188232421875	-352.4819641113281	-830.2164306640625	1713.452758789062	-330.33740234375	-882.4033813476562	1711.06103515625	-244.885009765625	-943.0004272460938	1668.64306640625	-442.6671142578125	-991.8472900390625	996.2709350585938	-548.6470947265625	-1083.4619140625	981.7521362304688	-192.5955047607422	-983.0175170898438	1032.07080078125	-205.6470947265625	-906.7318725585938	1034.344482421875	-475.2101745605469	-941.80224609375	510.0163879394531	-496.5675048828125	-947.473388671875	655.0255126953125	-525.3370971679688	-1051.714233398438	34.72045516967773	-498.2503356933594	-999.6546020507812	282.703125	-508.0566711425781	-855.8754272460938	45.55677795410156	-393.4113464355469	-932.6089477539062	42.56076431274414	-367.8316345214844	-923.2296752929688	35.38038635253906	-486.1156005859375	-1124.383666992188	43.93004608154297	-462.3411865234375	-889.9719848632812	519.7202758789062	-174.1053161621094	-973.1140747070312	778.6030883789062	-165.0660247802734	-1173.068237304688	128.6040954589844	-256.3515319824219	-912.99951171875	405.2621765136719	-194.7510681152344	-975.5166625976562	63.88452529907227	-239.4617309570312	-1013.39306640625	71.95034790039062	-298.1310729980469	-1084.937377929688	85.760986328125	-202.2516326904297	-1210.47119140625	151.4578399658203	-328.2997436523438	-747.6301879882812	764.8942260742188	-599.5491333007812	-992.1124267578125	738.9901733398438	-98.10871887207031	nan	nan	nan	
179	1.78	-1149.951171875	1023.706787109375	-317.2810363769531	-1119.998657226562	1041.454223632812	-431.8681945800781	-1129.608154296875	1121.262329101562	-393.2665100097656	-881.7835693359375	1308.264038085938	-324.3210754394531	-1129.90478515625	1248.150268554688	-392.6022338867188	-1062.737060546875	1508.599731445312	-385.7977600097656	-903.2056274414062	1427.463134765625	-333.1787719726562	-1155.64208984375	1373.42041015625	-332.4312438964844	-1051.713256835938	1469.359741210938	-496.5568237304688	-951.8432006835938	1472.100341796875	-521.6536865234375	-949.9368286132812	1360.833984375	-611.6393432617188	-902.3612670898438	1162.072387695312	-661.0987548828125	-980.6995849609375	1128.648315429688	-639.2794799804688	-777.619140625	952.8560791015625	-581.471923828125	-768.8018798828125	941.6427612304688	-666.6165771484375	-850.9050903320312	1065.7607421875	-670.65771484375	-731.5498046875	859.89501953125	-661.2556762695312	-711.8845825195312	865.7918701171875	-594.5916748046875	-1056.082763671875	1481.171264648438	-205.6738739013672	-1097.161743164062	1421.661743164062	-144.8815155029297	-1152.113037109375	1145.35888671875	-103.1673812866211	-1155.28466796875	1136.330932617188	-197.9444732666016	-1007.331481933594	931.8114624023438	-98.00674438476562	-1078.046142578125	916.1845703125	-53.05464172363281	-1131.944946289062	1076.15869140625	-81.11746978759766	-972.6629638671875	812.3240966796875	-70.28349304199219	-1039.369995117188	810.53271484375	-37.89336013793945	-1043.267700195312	1657.071899414062	-351.3486633300781	-823.990234375	1713.304809570312	-327.92041015625	-876.6737060546875	1710.84765625	-242.7786407470703	-936.1273193359375	1668.560668945312	-440.9096374511719	-984.876953125	995.9099731445312	-547.846435546875	-1078.263671875	982.1638793945312	-192.2719421386719	-977.9202880859375	1032.03857421875	-204.8267822265625	-899.9223022460938	1033.947998046875	-473.9696044921875	-939.6949462890625	509.3629150390625	-496.2177734375	-943.7329711914062	654.516357421875	-524.6572265625	-1051.753051757812	34.85757827758789	-498.0838317871094	-998.66162109375	282.4691162109375	-507.7470703125	-855.8251342773438	45.52500915527344	-393.325927734375	-932.6654663085938	42.42524719238281	-367.8077087402344	-923.2438354492188	35.41413879394531	-486.0484313964844	-1124.367553710938	43.95145034790039	-462.1618347167969	-879.8727416992188	522.490478515625	-170.6670532226562	-967.2656860351562	780.26904296875	-162.8192291259766	-1147.150390625	119.559700012207	-255.2322540283203	-899.57080078125	406.8266296386719	-191.1049652099609	-947.364013671875	63.97415924072266	-233.0379638671875	-984.2095336914062	69.72735595703125	-292.5209350585938	-1058.540161132812	81.29119873046875	-198.7198944091797	-1183.832153320312	139.9938507080078	-328.322021484375	-731.1754760742188	767.7066650390625	-594.5960693359375	-987.7421875	739.126220703125	-97.85481262207031	nan	nan	nan	
